# xmcd
#
# Track frame offsets:
#	150
#	11261
#	22103
#	37918
#	52609
#	68347
#	81454
#	94792
#	107621
#	125058
#
# Disc length: 1886 seconds
#
# Revision: 0
# Processed by: cddbd v1.4PL0 Copyright (c) Steve Scherf et al.
# Submitted via: EasyCDDAExtractor 4.6.9.1
#
DISCID=6f075c0a
DTITLE=Alan Jackson - A Lot About Living
DYEAR=1992
DGENRE=Country
TTITLE0=Chattahoochee
TTITLE1=She Got The Rhythm ( And I Got The Blues )
TTITLE2=To-night I Climbed The Wall
TTITLE3=I Don't Need The Booze ( To Get A Buzz On )
TTITLE4=( Who Says ) You Can't Have It All
TTITLE5=Up To My Ears In Tears
TTITLE6=Tropical Depression
TTITLE7=She Likes It Too
TTITLE8=If It Ain't One Thing  ( It's You )
TTITLE9=Mercury Blues
EXTD=ID3G:   2
EXTT0=
EXTT1=
EXTT2=
EXTT3=
EXTT4=
EXTT5=
EXTT6=
EXTT7=
EXTT8=
EXTT9=
PLAYORDER=
